<?xml version="1.0" standalone="no"?>
<!DOCTYPE svg PUBLIC "-//W3C//DTD SVG 20010904//EN"
 "http://www.w3.org/TR/2001/REC-SVG-20010904/DTD/svg10.dtd">
<svg version="1.0" xmlns="http://www.w3.org/2000/svg"
 width="1647.000000pt" height="1647.000000pt" viewBox="0 0 1647.000000 1647.000000"
 preserveAspectRatio="xMidYMid meet">
<metadata>
Created by potrace 1.11, written by Peter Selinger 2001-2013
</metadata>
<g transform="translate(0.000000,1647.000000) scale(0.100000,-0.100000)"
fill="#000000" stroke="none">
<path d="M10 8245 l0 -4915 8230 0 8230 0 0 4915 0 4915 -8230 0 -8230 0 0
-4915z m8050 4075 c181 -22 332 -82 471 -187 42 -32 597 -499 1233 -1038 636
-539 1172 -989 1192 -999 36 -19 37 -19 121 3 91 24 583 71 757 73 l98 1 93
-48 c68 -35 100 -46 118 -41 13 3 51 33 83 67 33 33 68 66 79 72 11 6 76 14
145 18 69 3 213 14 321 25 238 22 245 21 366 -77 104 -83 122 -109 140 -202
14 -77 34 -107 69 -107 30 0 51 23 63 68 6 20 18 64 27 97 47 175 154 279 309
300 81 11 561 34 600 29 22 -3 67 -1 99 5 105 19 636 45 681 32 41 -11 182
-126 258 -209 49 -56 48 -78 -12 -249 -59 -167 -241 -951 -241 -1037 0 -43 18
-109 83 -298 46 -134 101 -283 121 -333 116 -279 296 -780 296 -825 0 -16 -4
-40 -9 -54 -16 -39 -159 -195 -200 -216 -20 -10 -71 -21 -112 -25 -92 -9 -159
-23 -176 -37 -11 -9 -3 -18 34 -43 100 -68 119 -106 134 -279 10 -108 10 -136
-5 -208 -15 -80 -15 -87 3 -158 11 -41 27 -95 36 -119 21 -61 19 -106 -6 -130
-24 -22 -93 -35 -141 -26 -18 3 -55 1 -83 -5 -89 -21 -463 -49 -503 -38 -78
20 -91 20 -125 -1 -50 -31 -114 -37 -177 -16 -52 17 -52 17 -103 -8 -48 -24
-78 -28 -368 -52 -196 -16 -340 -23 -380 -19 -46 4 -79 2 -118 -10 -67 -20
-180 -21 -224 -2 -41 17 -72 51 -93 101 -19 47 -68 576 -58 641 10 68 43 115
104 147 54 28 58 29 162 23 83 -4 117 -2 150 10 26 10 152 25 323 39 154 13
413 35 575 49 403 36 722 83 575 85 -27 1 -97 6 -156 13 -82 9 -118 9 -156 0
-26 -6 -199 -18 -383 -27 -309 -13 -566 -34 -895 -70 -71 -8 -188 -19 -260
-25 -71 -6 -173 -17 -226 -26 -74 -12 -110 -13 -152 -5 -67 12 -114 1 -148
-35 -24 -25 -24 -26 -4 -41 16 -12 37 -14 110 -8 145 12 167 7 196 -48 10 -18
69 -679 69 -769 0 -25 -3 -54 -6 -63 -16 -40 -56 -46 -560 -88 -473 -39 -496
-40 -544 -25 -50 16 -52 16 -103 -8 -70 -32 -145 -33 -175 -1 -28 30 -29 37
-52 317 -11 135 -23 259 -26 275 -3 17 -27 52 -56 81 -42 43 -51 60 -55 98 -3
26 0 59 7 75 20 50 58 60 271 71 261 14 437 30 479 44 58 19 47 64 -20 81 -14
4 -64 25 -112 47 -58 27 -95 38 -110 35 -13 -4 -49 -26 -80 -50 -31 -24 -79
-53 -106 -65 -49 -21 -183 -42 -272 -42 -65 0 -116 -17 -155 -52 -20 -16 -468
-541 -998 -1166 -529 -625 -987 -1162 -1018 -1192 -115 -116 -273 -207 -439
-251 -123 -33 -357 -33 -480 -1 -104 28 -245 95 -325 155 -33 24 -584 488
-1225 1032 -641 543 -1179 998 -1197 1012 -46 35 -96 39 -181 13 -167 -49
-302 -71 -480 -77 -194 -7 -265 2 -402 48 -115 39 -143 38 -217 -10 -33 -21
-75 -43 -94 -49 -19 -7 -137 -18 -264 -27 -284 -19 -305 -21 -382 -50 -75 -29
-76 -29 -445 -65 -194 -18 -309 -26 -332 -20 -20 4 -60 24 -89 44 -79 54 -97
54 -204 2 -51 -25 -114 -52 -141 -60 -27 -8 -170 -24 -318 -36 l-269 -23 -150
37 c-178 45 -241 76 -324 159 -106 108 -156 191 -191 319 -26 96 -60 456 -60
635 0 103 -5 168 -20 235 -19 91 -52 454 -69 775 -5 89 -12 167 -16 173 -12
20 -7 136 10 220 55 270 166 451 317 519 35 16 112 43 172 61 60 17 148 50
195 72 84 40 89 41 206 43 66 1 165 7 220 13 55 7 153 12 218 12 88 0 136 5
185 20 59 17 351 50 677 75 60 5 94 14 137 36 33 17 73 29 95 29 78 0 221 -33
350 -81 120 -44 141 -49 216 -49 141 0 243 16 295 46 161 93 166 95 437 155
80 18 341 23 462 9 110 -13 118 -13 149 6 19 11 451 513 1019 1184 543 641
1022 1202 1066 1248 210 218 508 327 799 292z"/>
<path d="M7795 12256 c-172 -33 -324 -110 -444 -223 -42 -39 -546 -627 -1121
-1306 -727 -860 -1050 -1234 -1060 -1231 -165 57 -482 64 -650 14 -36 -10 -93
-23 -126 -29 -77 -12 -158 -50 -216 -100 l-44 -39 -140 -12 c-76 -7 -140 -13
-142 -15 -1 -1 4 -21 12 -43 9 -23 13 -42 11 -42 -3 0 -27 16 -53 35 -103 74
-306 151 -465 176 l-122 20 -30 -35 c-36 -41 -105 -66 -129 -47 -11 10 -86 5
-353 -20 l-338 -32 -25 -29 c-25 -28 -27 -29 -75 -18 -56 13 -176 15 -292 5
-134 -10 -143 -13 -143 -40 0 -14 -4 -25 -9 -25 -5 0 -47 14 -94 31 l-84 31
-89 -45 c-49 -25 -145 -61 -214 -82 -69 -20 -143 -46 -165 -58 -52 -26 -141
-118 -183 -189 -45 -75 -98 -228 -118 -339 -16 -88 -16 -95 1 -145 14 -42 17
-71 12 -136 -4 -60 -2 -90 7 -107 8 -14 12 -40 9 -61 -9 -65 36 -558 60 -655
18 -74 21 -114 19 -230 -2 -139 28 -521 49 -614 20 -93 86 -208 162 -286 91
-91 174 -135 307 -160 52 -10 102 -23 110 -30 12 -9 76 -7 305 12 l290 25 100
47 c55 27 120 62 145 79 37 26 47 29 60 18 138 -115 153 -126 178 -126 15 0
179 16 365 34 330 33 340 35 366 60 21 20 37 26 72 26 24 0 125 6 224 14 99 8
224 17 278 21 l97 7 89 68 89 69 63 -34 c132 -70 324 -100 531 -84 173 14 379
58 488 105 l60 27 58 -50 c95 -82 2218 -1880 2357 -1996 215 -180 388 -249
625 -249 66 0 146 7 187 16 166 36 329 122 442 235 31 31 504 585 1051 1231
547 646 1002 1182 1011 1191 12 12 45 18 125 23 189 12 284 26 324 46 50 25
107 93 127 151 l17 47 51 -51 c83 -84 205 -137 316 -137 51 0 59 -10 59 -77 0
-30 3 -33 30 -33 22 0 30 5 30 18 0 12 49 43 165 105 l164 88 33 -24 33 -24
515 53 c339 36 660 62 939 78 l424 25 27 26 c15 15 30 22 34 17 3 -5 26 -15
51 -22 39 -11 102 -10 368 4 177 9 341 19 364 22 39 5 50 14 136 110 l94 104
-82 233 c-95 267 -163 448 -212 562 -45 104 -233 642 -233 667 0 10 47 225
104 476 79 346 118 494 159 609 l54 151 -126 111 -126 111 -52 0 c-29 0 -177
-7 -329 -15 l-276 -16 -25 -29 c-30 -37 -39 -37 -74 -4 l-28 27 -298 -17
c-164 -9 -311 -19 -328 -23 -78 -15 -159 -85 -197 -170 -27 -60 -48 -166 -48
-240 l0 -63 -44 0 c-25 0 -47 -4 -50 -9 -3 -4 20 -71 50 -147 51 -126 56 -144
50 -191 -5 -40 -1 -64 14 -103 11 -28 18 -55 15 -59 -2 -5 -5 -45 -6 -90 -2
-76 -4 -81 -24 -81 -12 0 -24 -2 -27 -5 -5 -5 54 -239 87 -349 24 -77 20 -111
-15 -136 -16 -12 -30 -27 -30 -35 0 -7 14 -49 31 -93 l30 -80 2 -230 2 -230
-50 -5 c-78 -8 -82 0 -100 188 -8 88 -30 250 -49 360 -26 156 -36 251 -45 435
-10 218 -93 1088 -105 1108 -3 5 -52 45 -109 90 l-104 81 -219 -21 c-135 -13
-222 -25 -226 -33 -5 -8 -27 -9 -75 -4 -150 17 -137 22 -233 -97 -47 -59 -90
-118 -96 -132 -11 -25 -12 -25 -18 -4 -24 75 -141 166 -227 178 -66 8 -763
-53 -807 -72 -20 -8 -51 -26 -69 -40 l-32 -25 -1208 1024 c-664 563 -1237
1047 -1273 1076 -80 65 -219 134 -325 161 -103 27 -292 35 -390 16z m370 -230
c116 -37 179 -79 417 -282 117 -99 627 -531 1133 -959 l920 -780 -45 -6 c-25
-4 -148 -15 -275 -24 l-230 -18 -40 -30 c-22 -17 -58 -45 -80 -63 l-41 -33
-57 51 -57 50 -103 -7 c-89 -6 -108 -4 -153 13 -42 17 -62 19 -108 13 -41 -6
-59 -4 -67 5 -8 10 -24 8 -78 -7 -37 -11 -129 -30 -204 -43 -145 -26 -176 -39
-233 -104 l-32 -35 -48 23 c-92 43 -147 46 -441 23 -215 -17 -317 -20 -513
-16 -216 5 -259 3 -365 -15 -66 -11 -166 -26 -222 -32 -80 -10 -102 -16 -106
-29 -2 -10 -23 -23 -48 -30 -60 -18 -127 -53 -182 -95 l-46 -35 -5 32 c-3 18
-7 43 -8 57 l-3 25 -260 8 c-280 8 -412 3 -515 -18 -36 -7 -118 -19 -184 -26
-94 -10 -120 -16 -123 -29 -2 -9 -32 -26 -70 -39 -79 -28 -197 -105 -248 -162
-32 -36 -39 -40 -52 -27 -13 13 108 159 993 1204 554 654 1026 1210 1048 1236
106 122 259 204 431 232 70 11 221 -3 300 -28z m7008 -1833 c48 -42 87 -82 87
-88 0 -7 -20 -68 -43 -136 -29 -81 -81 -288 -152 -600 l-108 -477 98 -283 c54
-156 121 -340 150 -409 63 -148 135 -341 216 -572 l59 -169 -57 -62 c-31 -34
-59 -65 -63 -70 -3 -4 -158 -16 -343 -27 -362 -20 -372 -20 -435 28 l-34 24
-41 -40 -42 -41 -370 -21 c-225 -13 -580 -42 -904 -75 l-534 -54 -34 29 c-19
17 -38 30 -43 30 -4 0 -75 -36 -156 -80 -143 -78 -149 -80 -164 -62 -12 16
-32 21 -110 25 -120 6 -196 34 -262 95 -67 63 -93 123 -136 322 -32 142 -40
168 -45 141 -4 -19 -7 -61 -7 -96 0 -95 -19 -274 -36 -335 -19 -69 -55 -125
-94 -145 -43 -22 -616 -71 -647 -54 -14 8 -43 9 -87 4 -78 -8 -72 -42 -51 267
33 479 76 811 115 894 26 52 25 104 0 137 -17 21 -20 40 -20 114 1 48 5 132 9
187 8 94 9 99 39 123 28 21 32 30 32 73 0 27 -6 52 -13 59 -20 16 -15 330 6
436 12 57 16 130 15 255 -1 154 1 183 20 241 28 85 69 141 124 167 43 20 267
46 356 41 20 -1 44 1 52 4 21 9 241 27 325 27 60 0 77 -4 111 -26 50 -32 97
-100 124 -179 29 -81 80 -314 73 -332 -3 -8 12 -82 33 -165 30 -116 43 -152
57 -156 14 -3 15 -7 6 -19 -9 -11 3 -71 57 -278 43 -165 72 -261 78 -255 6 6
1 37 -12 82 -12 40 -28 144 -37 231 -16 165 -13 207 21 256 17 24 17 25 -18
55 l-36 31 -31 300 c-17 165 -31 313 -31 328 0 20 20 54 65 111 l65 82 92 -9
c80 -7 104 -6 173 12 44 11 135 26 203 32 l123 11 37 -26 c20 -14 57 -43 81
-63 l43 -38 43 -430 c24 -237 48 -533 55 -660 9 -178 19 -276 46 -435 20 -112
34 -218 31 -235 -2 -16 -1 -39 3 -50 4 -12 13 -72 20 -135 10 -104 14 -117 37
-136 19 -17 23 -27 18 -44 -7 -22 -5 -23 31 -17 22 4 88 10 147 13 l109 7 -8
111 c-4 61 -8 190 -9 286 -1 159 -3 181 -25 238 l-24 62 22 16 c36 25 30 127
-17 299 -38 139 -38 140 -17 146 16 4 20 12 18 35 -2 16 -4 88 -5 159 -2 84
-8 140 -16 157 -10 20 -11 37 -3 67 9 37 6 51 -32 148 l-43 108 27 3 27 3 6
122 c6 137 29 226 72 282 48 63 62 67 380 85 l290 16 54 -48 54 -47 51 54 51
54 255 14 c140 8 269 15 285 16 24 1 47 -14 118 -76z m-4393 -275 c0 -2 -9
-36 -20 -77 -10 -41 -17 -78 -14 -82 4 -7 -12 -475 -36 -1079 -16 -391 -39
-850 -51 -1005 -6 -77 -12 -228 -13 -335 -3 -208 -13 -262 -58 -331 -37 -55
-94 -76 -242 -88 -126 -11 -130 -11 -152 10 l-23 22 -48 -21 c-65 -27 -140
-42 -248 -48 l-90 -6 -87 74 c-79 65 -88 77 -89 108 0 19 -10 76 -23 125 l-22
90 -17 -122 c-9 -68 -26 -147 -38 -177 -21 -58 -80 -121 -121 -131 -34 -7
-493 -45 -553 -45 -125 0 -221 130 -286 388 -32 125 -39 143 -39 94 0 -49 -46
-181 -87 -251 -49 -81 -140 -166 -228 -213 -70 -36 -189 -71 -360 -104 -126
-25 -376 -26 -465 -1 -91 24 -215 87 -278 141 l-54 46 -39 -50 c-49 -62 -125
-120 -209 -159 -81 -37 -315 -98 -412 -107 -91 -8 -294 11 -397 37 -114 28
-248 98 -314 163 l-56 55 -21 -36 c-60 -102 -166 -192 -281 -239 -34 -14 -125
-39 -203 -56 -127 -28 -159 -31 -321 -32 -159 -1 -189 2 -258 22 -98 28 -169
63 -229 113 -26 21 -49 39 -52 39 -3 0 -6 -16 -6 -34 0 -32 -8 -41 -82 -99
l-83 -64 -180 -13 c-121 -8 -181 -8 -183 -2 -2 7 -17 6 -41 -3 -59 -21 -141
-28 -191 -16 -44 11 -46 10 -78 -25 l-33 -35 -326 -33 -326 -32 -78 64 c-74
60 -79 67 -79 103 l0 39 -70 -59 c-40 -33 -118 -83 -178 -114 -103 -52 -111
-54 -212 -61 -58 -4 -123 -9 -145 -11 -22 -2 -93 -9 -157 -15 -76 -6 -124 -7
-135 -1 -10 6 -54 15 -98 21 -93 12 -197 58 -262 114 -53 46 -115 139 -143
213 -30 80 -61 390 -65 638 -2 164 -6 213 -23 272 -15 56 -18 82 -11 118 6 35
5 50 -4 60 -17 17 -42 330 -51 635 -2 67 -8 117 -18 139 -13 29 -13 42 -1 110
43 229 142 400 270 464 27 14 100 37 163 52 63 15 145 43 182 61 l67 34 79
-31 79 -31 62 23 c40 16 61 30 61 41 0 13 18 17 115 23 124 8 171 4 249 -22
l50 -16 35 40 36 41 298 27 298 28 29 -22 c27 -20 32 -20 53 -7 12 9 42 22 67
31 25 9 56 27 70 40 l26 25 89 -15 c50 -9 106 -22 125 -30 19 -8 72 -28 117
-45 45 -17 115 -53 156 -79 72 -47 145 -127 129 -143 -4 -4 -5 -31 -2 -60 5
-51 6 -53 35 -53 17 0 34 -4 38 -10 8 -10 1 137 -9 183 -4 18 1 23 25 28 l29
6 -14 40 c-8 22 -12 43 -9 48 2 4 48 10 102 14 l98 7 44 44 c55 56 112 84 199
97 37 6 87 17 112 26 89 31 411 36 533 8 104 -23 224 -85 295 -151 l58 -53 28
45 c68 107 185 191 319 230 45 13 84 28 87 34 4 5 54 16 111 24 57 8 128 19
158 24 58 12 509 15 584 5 51 -7 47 0 62 -116 6 -44 8 -47 38 -50 27 -3 42 6
98 58 76 70 158 114 259 140 38 10 70 24 70 30 0 7 28 14 68 18 37 4 105 14
152 24 71 14 133 17 376 14 229 -2 343 2 531 18 317 27 366 18 471 -86 50 -51
52 -52 52 -26 0 71 43 148 99 176 14 7 58 17 96 20 39 4 110 18 159 32 72 20
94 23 116 14 18 -8 34 -8 54 0 40 15 74 12 131 -9 41 -15 67 -18 142 -14 l92
6 78 -67 c55 -48 79 -63 83 -52 3 7 43 44 89 82 l85 68 310 27 c338 29 356 30
356 27z m99 -204 c-8 -44 -10 -116 -6 -199 4 -97 2 -146 -9 -195 -9 -39 -18
-143 -21 -257 -4 -152 -9 -195 -20 -205 -13 -11 -14 3 -9 107 10 211 15 345
21 580 3 127 8 241 11 254 5 24 5 24 25 4 19 -18 19 -24 8 -89z m-65 -1490
c-1 -16 -9 -51 -17 -79 l-15 -50 -1 76 c-1 42 2 79 6 83 14 14 28 -2 27 -30z
m-2275 -1291 c57 -117 134 -192 225 -218 47 -14 77 -13 344 10 361 31 393 41
459 152 l25 43 84 -71 84 -71 87 7 c111 8 195 22 255 41 40 13 50 13 67 2 16
-12 44 -12 168 -1 192 16 225 25 285 83 l48 46 0 -33 0 -34 113 7 112 7 -56
-64 c-30 -35 -466 -549 -969 -1143 -512 -604 -935 -1096 -964 -1118 -211 -167
-520 -196 -757 -72 -53 28 -368 289 -1307 1085 -680 576 -1238 1052 -1239
1056 -2 5 3 17 11 28 13 18 15 18 46 -9 53 -44 183 -104 281 -131 125 -33 269
-48 413 -43 101 4 146 12 275 47 176 47 279 96 363 171 31 28 60 50 65 50 4 0
33 -16 63 -35 71 -46 194 -93 288 -111 254 -49 710 33 899 160 50 34 149 132
174 173 12 18 24 33 28 33 4 0 17 -21 30 -47z"/>
<path d="M8395 11315 c-39 -33 -39 -34 -21 -54 20 -22 26 -21 76 22 31 27 32
28 15 47 -10 11 -21 20 -24 20 -3 -1 -24 -16 -46 -35z"/>
<path d="M7167 11232 c-15 -17 -14 -20 21 -61 l37 -43 19 21 c19 21 19 22 -10
58 -37 45 -46 48 -67 25z"/>
<path d="M7584 11069 c-21 -18 -40 -34 -42 -35 -7 -4 19 -44 28 -44 11 0 80
59 80 69 0 4 -6 15 -13 25 -13 17 -16 17 -53 -15z"/>
<path d="M6981 10929 l-61 -51 61 -74 c86 -104 81 -101 129 -63 22 18 40 34
40 36 0 7 -100 203 -104 203 -2 0 -32 -23 -65 -51z"/>
<path d="M7360 10881 l-45 -39 21 -22 20 -21 43 38 c43 38 43 38 25 61 l-19
22 -45 -39z"/>
<path d="M8758 10583 c-16 -15 -14 -19 19 -60 36 -44 36 -44 56 -24 20 19 20
20 -12 60 -37 46 -40 48 -63 24z"/>
<path d="M7106 10294 l-38 -33 33 -40 c32 -38 34 -39 42 -18 4 11 7 44 5 73
l-3 52 -39 -34z"/>
<path d="M8655 10270 c-124 -20 -248 -67 -324 -124 l-33 -25 39 -42 c35 -37
42 -40 61 -30 46 24 91 11 153 -46 l25 -23 110 58 c60 32 162 87 228 122 l118
62 -24 24 c-22 22 -33 24 -158 28 -74 3 -162 1 -195 -4z"/>
<path d="M14765 10098 c-93 -5 -176 -11 -183 -13 -39 -14 -102 -226 -146 -490
-45 -274 -45 -260 -21 -440 18 -131 21 -185 15 -263 l-8 -97 31 -33 c27 -28
30 -35 19 -52 -11 -17 -10 -20 7 -20 15 0 20 10 26 52 5 38 15 60 36 81 32 32
37 52 14 61 -27 10 -17 36 13 36 22 0 30 -7 39 -31 11 -28 10 -33 -10 -49 -18
-15 -19 -20 -9 -33 11 -13 9 -23 -8 -58 -12 -23 -33 -52 -47 -65 -25 -23 -25
-24 -9 -65 14 -34 15 -44 4 -50 -23 -15 -36 -10 -42 16 -4 14 -11 25 -16 25
-12 0 -15 -16 -35 -155 l-15 -110 35 -160 c82 -365 161 -637 207 -712 24 -39
1 -38 353 -18 194 12 263 19 274 30 16 16 18 7 -121 383 -87 234 -156 397
-189 443 -14 20 -18 34 -11 42 7 8 -19 93 -81 271 l-90 258 101 447 c58 256
97 450 92 455 -4 4 -6 15 -3 22 3 8 -4 30 -16 50 -12 19 -19 40 -16 45 8 12
42 12 50 -1 13 -21 21 -8 49 75 l29 85 -23 25 c-27 28 -14 28 -295 13z m185
-293 c0 -14 -4 -25 -9 -25 -12 0 -23 29 -15 41 10 18 24 9 24 -16z m-350 -565
c0 -5 -11 -10 -25 -10 -14 0 -25 5 -25 10 0 6 11 10 25 10 14 0 25 -4 25 -10z
m133 -118 c-17 -112 -17 -112 -47 -120 -17 -4 -35 -18 -41 -30 -6 -14 -19 -22
-34 -22 -23 0 -23 2 -17 48 3 26 17 70 31 98 25 51 110 152 120 143 3 -3 -3
-56 -12 -117z m25 -704 c17 -17 15 -43 -4 -59 -31 -26 -70 25 -44 56 15 18 32
19 48 3z"/>
<path d="M14005 10054 c-110 -7 -210 -13 -223 -13 -39 -2 -54 -57 -60 -213 -3
-102 -1 -142 8 -153 10 -12 10 -18 -1 -31 -11 -13 -10 -19 0 -37 9 -14 10 -22
3 -25 -7 -2 -6 -15 4 -38 11 -27 12 -43 4 -74 -8 -30 -7 -47 5 -77 13 -32 14
-56 7 -125 -6 -67 -4 -103 9 -165 11 -51 14 -86 8 -101 -12 -32 -11 -79 2 -88
8 -5 8 -8 0 -13 -8 -5 -7 -21 4 -56 8 -27 17 -93 21 -147 7 -94 8 -98 30 -98
18 0 26 8 35 40 10 32 17 40 36 40 28 0 29 -5 3 -37 -11 -14 -20 -39 -20 -56
0 -23 -3 -27 -13 -19 -10 9 -22 5 -49 -14 l-36 -26 14 -41 c15 -43 9 -196 -8
-208 -5 -3 0 -23 11 -43 17 -29 19 -40 9 -55 -7 -11 -8 -26 -3 -37 5 -11 7
-43 6 -73 -2 -34 1 -56 9 -61 9 -5 9 -13 2 -27 -16 -30 -3 -243 15 -250 11 -5
12 -8 2 -13 -10 -7 -9 -25 5 -89 14 -66 15 -85 5 -97 -10 -12 -9 -26 1 -69 7
-29 16 -58 19 -63 4 -6 99 -5 266 5 253 14 261 15 285 38 l24 25 -17 302 c-16
278 -20 313 -49 423 -31 116 -32 127 -34 353 -2 149 -6 238 -13 246 -8 9 -10
130 -6 402 5 276 2 453 -7 608 l-14 219 -28 23 c-15 13 -37 23 -49 23 -12 -1
-112 -8 -222 -15z m125 -119 c0 -14 -4 -25 -10 -25 -5 0 -10 11 -10 25 0 14 5
25 10 25 6 0 10 -11 10 -25z m90 -630 c0 -16 -6 -25 -15 -25 -9 0 -15 9 -15
25 0 16 6 25 15 25 9 0 15 -9 15 -25z m-136 -351 c10 -25 7 -34 -9 -34 -9 0
-15 9 -15 25 0 28 15 34 24 9z m-144 -103 c0 -5 -11 -11 -25 -13 -17 -4 -25
-1 -25 8 0 8 11 14 25 14 14 0 25 -4 25 -9z m150 -31 c0 -16 -4 -30 -10 -30
-11 0 -14 43 -3 53 11 12 13 8 13 -23z m-77 -96 c30 -5 37 -11 37 -29 0 -24
-22 -35 -72 -35 -25 0 -28 3 -28 35 0 38 2 39 63 29z m222 -154 c18 -19 17
-20 -3 -20 -15 0 -22 6 -22 20 0 11 2 20 3 20 2 0 12 -9 22 -20z"/>
<path d="M12838 9963 c-13 -3 -18 -14 -18 -38 0 -46 -14 -51 -28 -11 -7 19
-21 36 -31 39 -10 2 -51 -5 -92 -16 -44 -12 -108 -20 -157 -21 -126 -2 -123 9
-89 -312 15 -141 32 -263 38 -270 8 -10 15 -10 29 -2 14 9 25 7 52 -9 27 -16
46 -19 86 -15 45 4 52 7 52 26 0 37 22 55 73 62 51 7 55 3 36 -40 -9 -19 -9
-29 0 -40 7 -8 9 -25 6 -39 -6 -21 -2 -25 26 -31 17 -3 51 -6 74 -6 40 0 55
-11 55 -40 0 -12 -110 -71 -120 -65 -6 4 -10 13 -10 21 0 8 -2 14 -5 14 -3 0
-46 -20 -95 -45 l-90 -45 -40 20 c-48 25 -62 25 -91 2 l-22 -19 12 -139 c7
-76 21 -170 32 -208 15 -50 20 -92 18 -155 -1 -47 1 -130 5 -183 8 -96 8 -98
-13 -98 -22 0 -25 -7 -15 -34 4 -12 11 -13 24 -6 17 9 19 3 25 -64 4 -40 4
-84 0 -96 -4 -13 -3 -25 3 -29 6 -4 27 -165 48 -371 36 -357 37 -366 63 -392
l26 -27 515 52 515 53 1 114 c1 66 -2 120 -8 128 -7 8 -6 17 3 28 11 14 10 19
-9 34 -12 11 -47 24 -77 31 -49 11 -57 10 -74 -5 -14 -13 -21 -14 -26 -6 -12
20 -136 2 -159 -22 -47 -50 -176 44 -176 127 0 18 -6 35 -13 38 -10 4 -17 45
-26 139 -7 76 -20 160 -32 197 -17 51 -19 67 -9 85 9 18 6 55 -20 197 -23 135
-34 235 -45 446 -14 250 -27 420 -41 501 -4 25 -10 32 -28 32 l-22 0 15 84
c12 73 12 106 1 236 -12 142 -15 154 -39 176 -25 23 -66 29 -113 17z m-78
-171 c0 -10 -9 -12 -32 -7 -18 4 -36 9 -40 12 -15 9 -8 22 15 25 27 4 57 -12
57 -30z m180 -277 c0 -28 -15 -34 -24 -9 -10 25 -7 34 9 34 9 0 15 -9 15 -25z
m-220 -844 c0 -9 -24 -21 -41 -21 -5 0 -9 7 -9 15 0 9 9 15 25 15 14 0 25 -4
25 -9z m-79 -29 c-15 -28 -49 -54 -60 -47 -23 14 -11 46 21 60 38 15 52 11 39
-13z m779 -1121 c0 -12 -29 -23 -41 -15 -18 10 -9 24 16 24 14 0 25 -4 25 -9z"/>
<path d="M11695 9858 c-56 -5 -103 -14 -107 -21 -11 -17 -10 -104 7 -442 11
-221 21 -337 39 -440 20 -110 23 -148 15 -180 -9 -35 4 -104 101 -555 61 -283
117 -544 125 -580 41 -203 67 -315 75 -329 27 -50 93 -85 181 -96 75 -9 90 -3
118 50 13 25 27 45 31 45 4 0 13 -13 20 -30 23 -55 31 -55 124 -5 47 26 88 50
90 54 6 9 -47 264 -89 425 -55 215 -118 376 -146 376 -16 0 -10 22 14 54 l24
31 -185 703 c-144 546 -182 706 -172 712 22 13 -36 184 -75 224 -18 18 -38 18
-190 4z m645 -2325 c0 -10 3 -35 6 -55 6 -37 6 -38 -25 -38 -28 0 -31 3 -31
33 0 17 -3 42 -6 55 -6 19 -3 22 25 22 23 0 31 -5 31 -17z"/>
<path d="M11310 9826 c-69 -6 -131 -15 -137 -19 -22 -14 -42 -105 -49 -223 -6
-101 -5 -116 11 -133 15 -17 15 -25 5 -57 -31 -93 -41 -160 -47 -300 -5 -128
-3 -155 11 -182 16 -31 16 -33 -4 -60 -30 -41 -50 -150 -56 -317 l-6 -150 25
-24 26 -23 35 27 c43 32 48 17 15 -39 l-21 -36 42 -47 42 -48 -26 -3 c-30 -4
-33 -14 -10 -33 14 -11 11 -15 -21 -31 -28 -15 -40 -17 -50 -8 -27 22 -62 -35
-79 -130 -18 -98 -45 -307 -51 -395 -10 -157 -26 -364 -29 -397 -3 -31 -1 -38
13 -38 9 0 22 -5 28 -11 15 -15 514 27 525 44 23 37 47 267 49 477 0 63 4 140
7 170 l7 55 85 7 c77 6 87 10 107 35 13 15 23 38 23 51 0 18 -6 22 -29 22 -17
0 -33 -5 -36 -11 -5 -6 -12 -4 -20 8 -11 15 -9 20 16 35 24 15 29 24 29 59 0
39 -1 41 -25 35 -20 -5 -25 -3 -25 13 0 11 5 23 10 26 14 9 12 58 -2 78 -8 11
-33 20 -67 24 l-54 6 6 201 c11 321 -21 1035 -54 1211 -17 91 -53 150 -87 144
-4 -1 -63 -7 -132 -13z m10 -1486 c0 -5 -11 -10 -25 -10 -14 0 -25 5 -25 10 0
6 11 10 25 10 14 0 25 -4 25 -10z m28 -55 c3 -10 -7 -27 -24 -40 -25 -20 -28
-30 -32 -91 -3 -38 -10 -72 -16 -76 -25 -17 -35 -6 -42 50 -4 31 -13 77 -20
102 -21 68 -21 69 49 72 80 5 81 5 85 -17z m32 -61 c0 -16 -23 -44 -35 -44
-18 0 -20 21 -3 38 12 12 38 17 38 6z m-212 -163 c27 -24 31 -75 5 -67 -10 2
-33 7 -50 11 -39 8 -41 20 -11 52 26 27 27 28 56 4z"/>
<path d="M12580 9240 c-19 -12 -5 -26 38 -33 24 -5 32 -3 32 8 0 13 -29 35
-47 35 -4 0 -15 -5 -23 -10z"/>
<path d="M14852 8928 c5 -32 28 -35 28 -4 0 17 -5 26 -16 26 -10 0 -14 -7 -12
-22z"/>
<path d="M14440 8660 c0 -5 11 -10 25 -10 14 0 25 5 25 10 0 6 -11 10 -25 10
-14 0 -25 -4 -25 -10z"/>
<path d="M12505 8223 c-6 -2 -9 -19 -7 -38 3 -29 8 -35 28 -35 13 0 24 3 24 8
-1 18 -36 69 -45 65z"/>
<path d="M12510 8107 c0 -16 -9 -28 -26 -35 -18 -9 -24 -19 -22 -34 5 -34 24
-32 51 4 18 24 24 41 20 61 -7 33 -23 36 -23 4z"/>
<path d="M11850 7385 c0 -16 9 -19 34 -9 25 9 19 24 -9 24 -16 0 -25 -6 -25
-15z"/>
<path d="M10364 9731 c-182 -16 -193 -19 -224 -44 l-32 -28 1 -182 c1 -204
-12 -296 -54 -359 -14 -21 -36 -40 -50 -44 -52 -13 -13 -74 47 -74 16 0 28 -3
28 -6 0 -4 -7 -50 -15 -103 -14 -85 -14 -101 -1 -131 13 -31 12 -36 -6 -60
-34 -46 -39 -167 -17 -390 26 -257 71 -568 119 -815 21 -110 42 -240 46 -289
6 -79 10 -92 33 -112 24 -22 32 -23 111 -18 47 4 92 10 101 15 19 10 35 73 44
175 5 58 3 73 -10 84 -9 7 -14 19 -11 27 21 55 58 691 90 1573 9 223 18 458
21 522 l6 117 -46 6 c-58 9 -81 30 -90 78 l-6 38 40 -21 c51 -26 67 -25 75 3
8 31 7 57 -1 56 -5 -1 -94 -9 -199 -18z m106 -581 c0 -14 -7 -20 -22 -20 -20
0 -21 1 -3 20 10 11 20 20 22 20 1 0 3 -9 3 -20z m-211 -94 c27 -29 20 -46
-18 -46 -22 0 -30 5 -33 24 -5 23 7 46 22 46 4 0 17 -11 29 -24z m-29 -361 c0
-9 -9 -15 -25 -15 -26 0 -34 15 -12 23 23 10 37 7 37 -8z m142 -579 c10 -16
-40 -21 -58 -5 -8 6 -14 16 -14 21 0 13 63 -1 72 -16z m-162 -116 c0 -5 -11
-10 -25 -10 -14 0 -25 5 -25 10 0 6 11 10 25 10 14 0 25 -4 25 -10z m210 -680
c0 -5 -11 -10 -25 -10 -14 0 -25 5 -25 10 0 6 11 10 25 10 14 0 25 -4 25 -10z"/>
<path d="M9445 9690 c-3 -6 -19 -17 -34 -25 -25 -13 -32 -12 -69 6 -40 20 -43
20 -99 3 -32 -9 -87 -20 -123 -23 l-65 -6 1 -87 c0 -61 5 -90 15 -101 13 -12
11 -66 -13 -431 l-29 -416 26 -35 c22 -28 24 -37 15 -54 -12 -23 -6 -82 12
-119 10 -18 8 -26 -10 -45 -12 -13 -22 -34 -22 -47 0 -30 16 -15 23 20 3 19 5
16 6 -12 1 -27 8 -41 28 -56 l28 -20 -28 -229 c-15 -125 -28 -235 -27 -245 0
-12 13 -18 50 -23 33 -5 50 -12 50 -21 0 -8 -10 -14 -25 -14 -22 0 -25 -4 -25
-35 0 -20 10 -49 25 -71 27 -40 31 -54 15 -54 -5 0 -10 -10 -10 -21 0 -16 5
-20 20 -16 11 3 20 4 20 2 0 -2 7 -31 16 -65 12 -48 13 -64 4 -76 -9 -10 -9
-14 -1 -14 8 0 11 -48 11 -157 0 -157 0 -157 27 -185 34 -36 76 -37 98 -4 30
46 56 257 74 606 10 190 16 181 -132 214 -24 6 -26 10 -21 34 10 42 16 43 66
11 45 -29 47 -30 72 -14 22 15 26 25 27 69 8 296 15 430 25 433 16 5 119 -338
104 -347 -9 -5 16 -133 90 -461 l101 -454 37 -34 37 -33 82 5 c84 6 157 30
181 60 11 13 11 40 2 151 -7 75 -9 143 -6 151 3 9 2 23 -3 33 -6 9 -22 170
-37 357 -25 322 -28 344 -60 439 -25 74 -31 103 -23 112 16 19 1 221 -22 309
-10 41 -14 71 -9 73 6 2 10 13 10 24 0 26 -74 429 -106 576 -13 63 -24 118
-24 123 0 5 16 9 35 9 34 0 35 1 35 40 0 36 -3 40 -24 40 -27 0 -56 23 -56 44
0 8 -19 31 -42 53 l-43 39 -75 -6 c-59 -5 -85 -3 -123 12 -54 20 -73 22 -82 8z
m-5 -153 c0 -2 -9 -12 -20 -22 -19 -18 -20 -17 -20 3 0 15 6 22 20 22 11 0 20
-2 20 -3z m140 -122 c0 -31 -3 -35 -25 -35 -22 0 -25 4 -25 35 0 31 3 35 25
35 22 0 25 -4 25 -35z m-252 -202 c3 -19 -1 -23 -22 -23 -21 0 -26 5 -26 26 0
21 4 25 23 22 14 -2 23 -11 25 -25z m-28 -298 c15 -18 13 -20 -17 -29 -19 -6
-23 -3 -23 13 0 10 -3 27 -7 36 -5 15 -3 16 14 7 11 -6 26 -18 33 -27z m-120
-20 c0 -14 -4 -25 -9 -25 -5 0 -11 11 -13 25 -4 17 -1 25 8 25 8 0 14 -11 14
-25z m128 -32 c-4 -22 -22 -20 -26 1 -2 10 3 16 13 16 10 0 15 -7 13 -17z
m102 -638 c0 -9 -9 -15 -25 -15 -31 0 -33 17 -2 23 12 2 23 5 25 6 1 0 2 -6 2
-14z"/>
<path d="M8388 9567 c-104 -8 -118 -12 -118 -28 0 -96 63 -418 121 -615 31
-108 39 -147 33 -178 -6 -38 -4 -42 31 -72 l38 -32 -21 -29 -21 -30 40 -183
c39 -179 42 -226 17 -257 -7 -9 6 -19 49 -38 60 -27 113 -69 113 -91 0 -7 12
-21 27 -32 l27 -19 -37 -45 -37 -45 0 -99 c0 -66 10 -158 31 -274 17 -96 33
-189 36 -206 4 -26 2 -33 -16 -39 -29 -9 -26 -23 5 -27 24 -3 28 -11 49 -93
26 -102 47 -156 68 -173 10 -9 54 -8 178 3 90 8 170 15 176 15 16 0 8 100 -14
178 -8 29 -12 65 -8 81 4 18 0 44 -10 67 -35 85 -75 283 -99 488 -1 16 5 69
16 119 l18 90 -111 586 c-61 322 -117 627 -124 677 -25 162 -76 257 -159 295
-46 21 -106 22 -298 6z m397 -804 c10 -20 13 -20 44 -7 39 16 61 18 61 4 0
-17 -58 -40 -102 -39 -100 1 -126 22 -65 52 38 19 49 17 62 -10z m-108 -510
c-3 -3 -13 -3 -21 -1 -15 3 -15 6 1 28 l18 25 3 -23 c2 -13 1 -26 -1 -29z
m163 -433 c0 -5 -11 -10 -25 -10 -14 0 -25 5 -25 10 0 6 11 10 25 10 14 0 25
-4 25 -10z"/>
<path d="M7531 9533 c-63 -7 -117 -15 -119 -18 -2 -2 5 -49 16 -104 16 -81 40
-148 80 -223 2 -3 -5 -4 -15 -1 -10 2 -46 44 -79 91 -54 77 -62 95 -69 150
l-7 62 -41 -6 c-215 -30 -344 -138 -401 -334 -44 -152 -39 -429 10 -556 14
-38 27 -78 28 -89 6 -53 19 -77 37 -72 11 3 19 2 19 -2 0 -5 36 -47 81 -94 81
-87 206 -187 329 -264 36 -22 121 -96 190 -165 69 -68 139 -130 157 -137 l32
-13 -20 -39 c-15 -31 -18 -50 -13 -89 4 -27 13 -55 20 -61 11 -9 11 -15 3 -25
-13 -16 -3 -131 12 -140 6 -3 6 -10 1 -17 -5 -7 -17 -44 -25 -84 -15 -68 -15
-83 4 -245 14 -120 24 -176 34 -184 22 -16 204 30 285 72 118 61 210 160 253
272 36 92 40 172 16 395 -22 207 -22 207 -46 207 -23 0 -24 3 -18 39 5 32 -1
54 -41 141 l-48 102 -190 153 c-321 257 -493 423 -547 528 -21 39 -38 147 -38
232 0 45 1 48 14 32 7 -11 32 -21 54 -24 50 -7 76 12 85 63 4 19 11 34 17 34
5 0 7 -11 3 -25 -3 -13 2 -47 11 -75 12 -36 15 -65 10 -100 -5 -35 -2 -64 10
-100 10 -31 15 -72 13 -109 -5 -86 6 -89 226 -66 200 21 312 50 309 81 -58
539 -56 511 -39 579 9 35 16 67 16 70 0 3 -18 5 -39 5 -63 0 -97 36 -106 110
l-7 60 -176 -1 c-98 -1 -228 -8 -291 -16z m-451 -404 c0 -20 -15 -26 -25 -9
-9 15 3 43 15 35 5 -3 10 -15 10 -26z m-60 -12 c0 -2 -9 -12 -20 -22 -19 -18
-20 -17 -20 3 0 15 6 22 20 22 11 0 20 -2 20 -3z m64 -53 c10 -27 7 -54 -8
-54 -11 0 -36 46 -36 66 0 12 39 1 44 -12z m-14 -108 c0 -20 -6 -25 -35 -28
-59 -7 -36 29 33 51 1 1 2 -10 2 -23z m150 -637 c0 -10 -4 -19 -9 -19 -12 0
-23 29 -15 41 8 14 24 0 24 -22z m1000 -434 c0 -14 -4 -25 -9 -25 -10 0 -21
36 -13 44 12 13 22 5 22 -19z m-272 -264 c3 -16 -1 -22 -10 -19 -7 3 -15 15
-16 27 -3 16 1 22 10 19 7 -3 15 -15 16 -27z"/>
<path d="M6170 9422 l-135 -17 3 -35 c6 -62 34 -174 57 -226 25 -57 77 -120
106 -129 14 -5 18 -12 14 -26 -4 -11 1 -42 11 -71 11 -35 15 -69 11 -109 -4
-43 0 -72 13 -106 12 -33 16 -64 13 -107 -5 -60 -5 -61 24 -72 37 -14 395 25
466 51 26 9 47 18 47 19 0 1 -13 121 -29 268 -28 244 -29 270 -16 319 23 84
21 89 -24 89 -59 0 -101 39 -101 93 0 23 -4 48 -8 55 -14 21 -293 24 -452 4z"/>
<path d="M5838 9354 c-176 -42 -292 -174 -333 -376 -31 -156 -14 -421 34 -531
12 -27 19 -53 16 -57 -8 -13 27 -80 38 -73 5 3 45 -34 89 -81 88 -95 201 -187
330 -269 52 -34 127 -97 203 -173 66 -65 134 -126 150 -134 17 -8 31 -15 33
-16 2 -1 -4 -17 -14 -36 -20 -39 -20 -125 1 -148 9 -10 11 -20 5 -30 -13 -20
-1 -121 17 -141 12 -14 12 -17 0 -22 -8 -3 -19 -36 -27 -81 -11 -67 -11 -99 5
-246 12 -111 23 -174 32 -181 16 -14 202 30 267 63 203 102 300 252 300 463 0
161 -7 315 -15 315 -4 0 -10 25 -14 56 -6 53 -8 55 -32 49 -24 -6 -24 -4 -17
27 10 48 11 44 -41 158 l-48 105 -106 81 c-278 212 -533 447 -604 554 -44 67
-59 131 -61 264 -1 88 2 107 23 149 l23 47 -61 84 c-51 70 -61 91 -61 124 0
78 -16 85 -132 56z m-138 -339 c0 -14 -4 -25 -10 -25 -5 0 -10 11 -10 25 0 14
5 25 10 25 6 0 10 -11 10 -25z m-60 -14 c0 -13 -26 -32 -33 -24 -14 13 -6 33
13 33 11 0 20 -4 20 -9z m70 -71 c0 -49 -11 -51 -33 -6 -17 37 -14 46 15 46
14 0 18 -8 18 -40z m-13 -85 c7 -20 5 -22 -39 -30 -46 -9 -51 7 -10 29 35 19
41 19 49 1z m143 -640 c0 -14 -4 -25 -10 -25 -5 0 -10 11 -10 25 0 14 5 25 10
25 6 0 10 -11 10 -25z m1000 -440 c0 -14 -4 -25 -10 -25 -5 0 -10 11 -10 25 0
14 5 25 10 25 6 0 10 -11 10 -25z m-270 -250 c0 -14 -4 -25 -9 -25 -10 0 -21
36 -13 44 12 13 22 5 22 -19z"/>
<path d="M4778 9289 c-14 -6 -29 -16 -32 -24 -5 -14 9 -224 20 -292 3 -18 16
-46 31 -63 23 -28 27 -44 38 -173 l13 -142 -25 -21 c-13 -11 -26 -34 -27 -50
-2 -16 -8 -28 -12 -27 -88 16 -84 17 -84 -9 0 -20 7 -26 43 -34 29 -6 45 -16
52 -31 14 -32 35 -29 35 6 0 16 6 34 14 40 11 9 14 -4 19 -73 4 -46 4 -98 1
-115 -4 -17 -2 -31 3 -31 5 0 15 -73 22 -162 8 -109 17 -168 26 -177 10 -10
11 -18 3 -31 -8 -12 -2 -125 22 -415 l33 -398 -23 -65 c-40 -112 -29 -362 16
-362 6 0 47 7 90 16 94 18 166 45 229 85 25 16 57 29 70 29 14 0 25 5 25 10 0
6 -5 10 -11 10 -6 0 12 25 39 55 62 68 98 141 114 234 10 61 8 114 -15 391
-14 176 -29 325 -32 330 -4 6 -17 10 -31 10 -13 0 -24 1 -24 3 0 2 11 31 24
65 l25 62 -39 478 c-22 262 -46 506 -55 541 -38 162 -155 266 -346 310 -104
24 -215 32 -251 20z m222 -162 c0 -36 -5 -47 -30 -65 -21 -16 -30 -31 -30 -52
0 -41 -16 -46 -35 -10 -12 23 -24 31 -55 36 -34 6 -40 10 -40 31 0 22 3 24 25
19 14 -3 37 -9 51 -12 23 -6 25 -4 19 15 -8 26 42 81 74 81 18 0 21 -6 21 -43z
m421 -1394 l31 -66 -44 -44 -44 -43 -41 31 c-34 26 -42 39 -47 77 -4 28 -2 50
6 59 14 17 78 52 96 53 7 0 27 -30 43 -67z m29 -208 c0 -8 0 -18 1 -22 0 -4
-4 -9 -10 -11 -6 -2 -11 8 -11 22 0 14 5 26 10 26 6 0 10 -7 10 -15z m-310
-95 c0 -8 -51 -40 -65 -40 -10 0 -5 26 7 38 14 14 58 16 58 2z m350 -70 c0 -5
-7 -10 -15 -10 -8 0 -18 0 -22 -1 -4 0 -9 4 -11 10 -2 6 8 11 22 11 14 0 26
-4 26 -10z m-40 -70 c0 -13 -7 -20 -20 -20 -18 0 -19 2 -8 20 7 11 16 20 20
20 5 0 8 -9 8 -20z m30 -55 c0 -9 -9 -15 -25 -15 -26 0 -34 15 -12 23 23 10
37 7 37 -8z"/>
<path d="M4540 9249 c-38 -18 -66 -26 -68 -20 -5 16 -42 13 -88 -8 -42 -19
-74 -67 -74 -110 0 -12 -6 -21 -12 -20 -7 1 -21 -1 -31 -6 -10 -4 -29 -3 -44
4 -14 6 -28 10 -30 7 -3 -3 2 -26 11 -52 9 -26 16 -51 16 -56 0 -5 -23 -6 -52
-2 l-51 7 6 -48 c4 -26 7 -54 7 -61 0 -8 5 -14 10 -14 6 0 10 11 10 25 0 16 6
25 15 25 18 0 18 0 4 -56 -8 -31 -17 -44 -29 -44 -9 0 -25 -9 -35 -20 -16 -18
-14 -53 49 -822 53 -637 70 -806 82 -819 10 -11 12 -19 5 -24 -15 -9 -13 -79
4 -153 38 -159 138 -273 283 -323 70 -24 228 -43 285 -35 64 10 69 29 56 201
-10 129 -13 143 -39 181 l-29 40 -40 478 c-25 297 -44 483 -52 492 -9 11 -9
17 1 30 11 12 10 18 -3 31 -11 12 -13 21 -6 37 7 15 1 135 -20 384 l-30 362
32 54 33 54 -11 130 c-9 117 -13 133 -34 156 -31 33 -50 32 -131 -5z m-160
-149 c0 -5 -7 -10 -15 -10 -8 0 -18 0 -22 -1 -4 0 -9 4 -11 10 -2 6 8 11 22
11 14 0 26 -4 26 -10z m-30 -190 c0 -11 -4 -20 -10 -20 -5 0 -10 2 -10 4 0 2
-3 11 -6 20 -4 11 -1 16 10 16 9 0 16 -8 16 -20z m-50 -25 c0 -14 -4 -25 -10
-25 -5 0 -10 11 -10 25 0 14 5 25 10 25 6 0 10 -11 10 -25z"/>
<path d="M3324 9181 c-5 -6 -37 -18 -69 -27 -33 -8 -71 -25 -84 -37 -24 -23
-51 -75 -51 -101 0 -9 42 -43 93 -77 50 -34 94 -64 97 -66 2 -2 20 -155 40
-340 l36 -335 -41 -25 c-22 -14 -50 -31 -62 -39 -32 -20 -54 -103 -60 -230
l-6 -111 46 -22 c58 -28 103 -79 118 -133 6 -24 15 -143 18 -265 5 -143 11
-227 18 -234 9 -9 9 -18 0 -36 -9 -21 -8 -27 7 -35 13 -7 15 -12 6 -18 -9 -5
-3 -48 25 -173 20 -92 34 -171 31 -176 -3 -5 1 -22 9 -37 12 -24 12 -30 1 -36
-8 -5 -11 -18 -8 -34 5 -25 6 -26 66 -22 40 3 92 17 150 41 l88 36 11 -29 11
-30 101 7 c89 5 104 9 136 34 35 27 36 31 42 110 4 45 4 85 2 89 -3 4 -20 11
-38 14 -30 6 -33 9 -30 39 2 17 -7 95 -20 172 l-23 140 -42 3 c-43 3 -50 10
-32 28 7 7 4 29 -10 69 -11 32 -20 71 -20 87 0 32 54 108 77 108 18 0 17 122
-2 186 -31 105 -139 215 -290 296 -60 32 -60 32 -30 38 71 15 143 77 185 159
26 53 59 191 61 261 1 30 -8 100 -20 155 -17 79 -20 110 -13 142 8 37 6 52
-22 120 -42 104 -81 169 -114 190 -15 9 -37 25 -48 35 -25 22 -240 106 -293
114 -20 3 -41 1 -47 -5z m404 -800 c3 -16 -1 -22 -10 -19 -7 3 -15 15 -16 27
-3 16 1 22 10 19 7 -3 15 -15 16 -27z m-58 -9 c0 -5 -9 -17 -20 -27 -19 -18
-20 -17 -20 2 0 11 3 23 7 26 9 10 33 9 33 -1z m69 -89 c1 -34 -25 -28 -38 8
-14 40 -14 37 7 41 19 4 30 -14 31 -49z m-19 -78 c0 -22 -4 -25 -35 -25 -42 0
-45 14 -7 34 37 21 42 20 42 -9z"/>
<path d="M2705 9108 c-177 -19 -192 -22 -217 -46 -32 -29 -35 -44 -13 -62 11
-9 12 -17 5 -30 -14 -27 -12 -56 5 -70 11 -9 12 -17 4 -31 -9 -17 -6 -105 6
-165 3 -11 16 -26 29 -32 34 -15 51 -73 38 -130 -10 -41 -9 -44 19 -64 l29
-22 -27 -35 c-14 -20 -32 -41 -40 -48 -13 -10 -13 -35 2 -195 16 -166 21 -191
53 -267 l35 -84 -6 -201 c-6 -181 -4 -233 24 -521 23 -235 36 -325 47 -337 12
-14 12 -21 2 -32 -20 -25 5 -224 32 -253 27 -29 45 -29 335 0 219 22 261 33
235 59 -7 7 -8 17 -2 27 5 11 1 48 -12 101 -15 64 -18 104 -14 162 4 64 2 85
-15 124 -19 42 -19 48 -6 62 14 14 14 19 -3 51 -15 31 -17 45 -9 88 8 42 7 59
-6 82 -11 23 -15 63 -15 164 0 106 -3 137 -15 147 -10 9 -11 16 -4 28 13 21
-36 529 -53 549 -7 9 -7 17 0 26 9 10 7 19 -4 35 -12 18 -12 25 -2 42 11 17
10 25 -5 51 -13 23 -15 35 -7 45 12 13 -3 118 -33 250 -11 45 -12 76 -5 123 9
56 8 64 -9 76 -17 13 -17 14 6 39 22 24 23 28 16 125 l-7 100 -53 46 c-63 53
-53 53 -340 23z"/>
<path d="M2120 9038 c0 -12 -19 -18 -74 -27 -111 -16 -149 -35 -197 -97 -48
-63 -68 -112 -69 -172 0 -37 7 -53 48 -105 53 -69 50 -59 56 -257 4 -150 10
-183 43 -213 19 -16 30 -17 224 -2 112 9 213 18 224 21 11 2 28 16 39 30 17
25 18 34 7 142 -8 76 -17 122 -27 133 -10 11 -12 19 -5 24 18 11 12 119 -10
190 -15 48 -17 71 -10 78 14 14 14 47 0 47 -8 0 -8 4 -1 13 14 17 1 75 -27
121 -27 43 -87 73 -163 82 -48 6 -58 4 -58 -8z m10 -467 c0 -6 -5 -13 -10 -16
-15 -9 -43 3 -35 15 8 13 45 13 45 1z m180 -84 c0 -7 -16 -21 -36 -30 -34 -17
-35 -16 -32 0 2 10 14 23 28 30 32 16 40 16 40 0z"/>
<path d="M1650 9001 c-20 -30 -20 -81 1 -81 22 0 5 -17 -41 -43 -59 -33 -74
-28 -91 35 -11 44 -18 43 -34 -5 -8 -24 -17 -33 -37 -35 -23 -3 -28 1 -28 19
0 19 -4 21 -36 16 -85 -14 -162 -103 -210 -243 -19 -56 -27 -96 -26 -139 6
-209 11 -283 21 -309 7 -18 9 -57 5 -107 l-7 -78 -48 -16 c-27 -9 -49 -18 -49
-19 0 -13 24 -66 29 -66 4 0 20 14 36 30 16 17 32 30 37 30 4 0 8 -20 8 -44 0
-24 3 -58 6 -76 7 -30 9 -32 41 -27 19 4 50 17 68 31 l33 26 16 -47 c19 -57
19 -53 1 -53 -47 0 -101 -75 -124 -176 -11 -44 -10 -61 8 -132 12 -44 21 -96
21 -115 0 -68 11 -98 34 -95 33 5 34 -35 1 -50 -36 -17 -44 -46 -35 -137 4
-43 5 -85 3 -92 -3 -8 0 -33 6 -56 6 -23 15 -97 20 -164 7 -103 13 -132 38
-186 38 -81 83 -131 147 -165 45 -24 63 -27 146 -28 52 0 102 -4 111 -8 9 -4
43 -4 74 1 45 6 62 14 77 34 18 24 19 33 7 180 -8 98 -17 160 -25 170 -10 11
-11 18 -3 26 14 14 -36 604 -59 698 -12 49 -15 87 -11 125 10 82 -11 341 -29
362 -11 14 -12 21 -3 32 9 11 7 71 -9 262 -11 137 -25 257 -30 267 -7 12 -7
24 1 39 9 16 10 75 6 210 -7 226 -20 264 -67 199z m-210 -321 c0 -5 -6 -10
-14 -10 -20 0 -56 -48 -56 -76 0 -27 -34 -42 -55 -24 -17 14 -39 3 -74 -34
-31 -33 -37 -33 -50 5 -14 40 -14 39 2 39 32 0 119 51 135 80 15 27 22 30 65
30 26 0 47 -4 47 -10z m-60 -1115 c0 -14 -4 -25 -10 -25 -5 0 -10 11 -10 25 0
14 5 25 10 25 6 0 10 -11 10 -25z m80 -340 c0 -20 -5 -25 -25 -25 -20 0 -25 5
-25 25 0 20 5 25 25 25 20 0 25 -5 25 -25z m280 -161 c0 -31 -3 -35 -22 -32
-18 2 -24 11 -26 36 -3 29 -1 32 22 32 23 0 26 -4 26 -36z"/>
<path d="M8290 8855 c0 -14 5 -25 10 -25 6 0 10 11 10 25 0 14 -4 25 -10 25
-5 0 -10 -11 -10 -25z"/>
<path d="M8018 8624 c-8 -8 3 -44 13 -44 5 0 9 11 9 25 0 24 -10 32 -22 19z"/>
<path d="M8205 8553 c-68 -21 -86 -32 -122 -72 -23 -25 -42 -49 -43 -53 0 -4
62 -55 139 -113 76 -59 144 -118 151 -133 l12 -27 14 35 c14 32 12 46 -22 205
-20 93 -39 173 -43 177 -3 3 -42 -5 -86 -19z m29 -136 c5 -22 4 -27 -6 -21
-22 12 -48 37 -48 45 0 10 33 18 41 10 4 -3 9 -19 13 -34z"/>
<path d="M6883 8543 c-7 -2 -13 -14 -13 -25 0 -20 1 -21 20 -3 30 27 26 42 -7
28z"/>
<path d="M5494 8414 c3 -9 6 -18 6 -21 0 -3 7 0 15 7 21 18 19 30 -6 30 -15 0
-19 -4 -15 -16z"/>
<path d="M6738 8361 l-57 -68 134 -103 c102 -78 137 -111 145 -135 7 -20 20
-35 33 -39 49 -13 50 -11 42 66 l-7 72 -69 74 c-38 41 -88 103 -111 138 -23
35 -45 64 -48 63 -3 0 -31 -31 -62 -68z"/>
<path d="M6918 8384 c-38 -20 -35 -34 7 -34 31 0 35 3 35 25 0 29 -5 30 -42 9z"/>
<path d="M5543 8272 c-51 -24 -40 -47 16 -36 21 5 31 12 31 25 0 26 -11 29
-47 11z"/>
<path d="M3944 8080 l-40 -75 45 -42 46 -41 3 26 c1 15 -1 68 -5 117 l-8 90
-41 -75z"/>
<path d="M5613 8060 c4 -14 7 -55 8 -92 2 -62 4 -67 27 -73 13 -3 27 -4 29 -1
3 3 2 34 -1 69 -6 54 -12 69 -38 93 l-31 29 6 -25z"/>
<path d="M1972 7989 c2 -6 7 -10 11 -10 4 1 14 1 22 1 8 0 15 5 15 10 0 6 -12
10 -26 10 -14 0 -24 -5 -22 -11z"/>
<path d="M7395 7960 c-4 -6 -11 -54 -16 -107 -5 -52 -14 -101 -19 -109 -6 -7
-10 -21 -8 -30 2 -11 -4 -20 -16 -22 -14 -3 -17 0 -13 11 3 8 11 43 18 76 10
55 10 63 -6 81 -24 26 -47 25 -74 -4 -30 -32 -87 -40 -167 -21 -91 21 -97 20
-90 -11 4 -14 11 -140 16 -281 8 -218 11 -258 26 -274 12 -13 13 -19 4 -19
-18 0 -5 -62 29 -135 50 -109 161 -192 306 -229 71 -18 210 -36 276 -36 71 0
75 10 56 133 -26 166 -64 263 -107 274 -12 3 -21 17 -25 37 -9 56 -45 400 -45
426 1 14 -5 60 -13 102 -14 81 -31 109 -79 134 -32 17 -45 18 -53 4z"/>
<path d="M2000 7915 c13 -14 25 -25 27 -25 2 0 3 11 3 25 0 20 -5 25 -27 25
l-26 0 23 -25z"/>
<path d="M2140 7899 c-7 -11 -9 -23 -6 -26 9 -10 66 19 66 33 0 22 -48 17 -60
-7z"/>
<path d="M6012 7823 c-5 -21 -10 -58 -11 -83 -2 -81 -12 -139 -27 -151 -24
-20 -26 -4 -11 70 13 64 13 72 -2 84 -32 28 -42 28 -72 3 -17 -14 -42 -29 -57
-33 -23 -6 -154 11 -189 24 -23 9 2 -552 27 -582 7 -9 7 -14 0 -17 -13 -4 12
-102 40 -157 49 -97 178 -182 330 -216 41 -9 126 -20 187 -22 135 -7 132 -10
115 118 -21 156 -75 289 -118 289 -7 0 -14 3 -14 8 -3 70 -71 615 -79 630 -13
24 -78 72 -98 72 -7 0 -16 -17 -21 -37z"/>
<path d="M2190 7795 c0 -27 4 -30 63 -40 37 -6 37 -6 37 30 l0 35 -50 0 c-47
0 -50 -2 -50 -25z"/>
<path d="M8547 7702 c-22 -24 -21 -32 3 -32 15 0 20 7 20 25 0 30 -2 30 -23 7z"/>
<path d="M10540 7645 c0 -29 2 -30 40 -10 40 21 38 35 -5 35 -31 0 -35 -3 -35
-25z"/>
<path d="M2168 7635 c-9 -9 4 -55 13 -49 11 7 12 54 1 54 -5 0 -11 -2 -14 -5z"/>
<path d="M2333 7593 c-22 -8 -14 -23 12 -23 16 0 25 6 25 15 0 15 -14 18 -37
8z"/>
<path d="M10520 7578 c1 -37 14 -58 36 -58 24 0 24 0 7 35 -16 34 -43 48 -43
23z"/>
<path d="M10605 7500 c-20 -22 -15 -36 10 -27 8 4 15 16 15 27 0 25 -2 25 -25
0z"/>
<path d="M2170 7485 c0 -16 6 -25 15 -25 9 0 15 9 15 25 0 16 -6 25 -15 25 -9
0 -15 -9 -15 -25z"/>
<path d="M10530 7481 c0 -17 12 -41 21 -41 5 0 9 11 9 25 0 16 -6 25 -15 25
-8 0 -15 -4 -15 -9z"/>
<path d="M9149 7473 c-2 -14 3 -68 6 -71 2 -2 13 -1 24 3 19 6 20 7 4 41 -15
31 -32 44 -34 27z"/>
<path d="M9160 7355 c0 -14 5 -25 10 -25 6 0 10 11 10 25 0 14 -4 25 -10 25
-5 0 -10 -11 -10 -25z"/>
<path d="M6245 7290 c-20 -22 -16 -34 9 -24 9 3 16 15 16 25 0 24 -3 24 -25
-1z"/>
<path d="M2225 7263 c-155 -7 -182 -13 -194 -39 -17 -39 -14 -174 5 -195 12
-13 13 -22 5 -38 -6 -11 -11 -62 -11 -114 l0 -95 -29 -10 c-53 -18 -61 -44
-49 -157 5 -55 7 -118 5 -141 -4 -36 -1 -42 22 -51 37 -16 175 -1 234 25 76
34 182 108 228 160 84 94 121 233 86 321 -12 29 -15 57 -11 103 8 86 -10 185
-37 215 -24 24 -53 26 -254 16z"/>
<path d="M3304 6994 c-13 -5 -6 -54 7 -54 5 0 9 14 9 30 0 17 -1 30 -2 29 -2
0 -8 -3 -14 -5z"/>
<path d="M5317 6720 c-16 -22 -16 -25 -1 -28 21 -5 26 2 22 30 l-3 23 -18 -25z"/>
<path d="M5320 6655 c0 -9 9 -15 25 -15 16 0 25 6 25 15 0 9 -9 15 -25 15 -16
0 -25 -6 -25 -15z"/>
<path d="M10267 6753 c-14 -13 -6 -23 18 -23 16 0 25 6 25 15 0 15 -31 21 -43
8z"/>
<path d="M8235 6470 c-9 -39 0 -50 40 -50 29 0 34 4 40 30 9 39 0 50 -40 50
-29 0 -34 -4 -40 -30z"/>
<path d="M9310 6315 c0 -12 16 -15 80 -15 64 0 80 3 80 15 0 12 -16 15 -80 15
-64 0 -80 -3 -80 -15z"/>
<path d="M9714 6225 c-150 -75 -252 -147 -297 -211 -35 -49 -60 -111 -51 -125
3 -5 35 -9 71 -9 57 0 69 3 88 24 25 28 69 41 168 53 l68 8 84 163 83 162 -42
0 c-32 0 -74 -16 -172 -65z"/>
<path d="M7750 5968 c0 -7 -3 -23 -6 -35 -6 -21 -3 -23 35 -23 40 0 41 1 41
35 0 33 -2 35 -35 35 -21 0 -35 -5 -35 -12z"/>
<path d="M7200 5820 c0 -18 7 -20 75 -20 68 0 75 2 75 20 0 18 -7 20 -75 20
-68 0 -75 -2 -75 -20z"/>
<path d="M7737 5793 c-4 -3 -7 -21 -7 -40 0 -32 1 -33 40 -33 l40 0 0 40 c0
39 -1 40 -33 40 -19 0 -37 -3 -40 -7z"/>
<path d="M7340 5618 c0 -18 -3 -43 -6 -55 l-6 -23 155 0 155 0 7 31 c4 17 5
33 2 35 -5 5 -264 43 -294 44 -8 0 -13 -13 -13 -32z"/>
<path d="M8100 5375 l0 -35 73 0 72 1 -65 34 c-36 19 -68 34 -72 35 -5 0 -8
-16 -8 -35z"/>
<path d="M13339 9567 c-9 -20 -9 -48 0 -115 6 -48 11 -107 11 -130 0 -74 33
-117 66 -85 12 12 14 28 11 62 -27 246 -29 254 -61 280 -13 11 -17 9 -27 -12z"/>
<path d="M13395 8871 c-8 -13 -8 -134 -1 -159 18 -57 83 -17 73 45 -7 43 -43
123 -56 123 -5 0 -12 -4 -16 -9z"/>
<path d="M14960 7021 l-65 -6 3 -45 c1 -25 16 -207 32 -405 17 -198 30 -363
30 -366 0 -5 101 0 108 6 1 1 -4 73 -12 161 -7 87 -12 162 -9 167 2 4 17 7 33
7 32 0 22 22 102 -245 l24 -79 50 3 c27 1 50 4 52 6 2 2 -20 76 -48 165 l-52
162 24 25 c22 24 23 31 21 158 -2 172 -15 236 -54 270 -27 22 -39 25 -102 23
-40 -1 -101 -4 -137 -7z m160 -107 c8 -9 18 -65 23 -131 10 -114 9 -117 -13
-135 -12 -10 -38 -18 -59 -18 l-37 0 -11 142 c-6 78 -9 146 -7 150 9 15 91 9
104 -8z"/>
<path d="M14670 6996 l-125 -11 3 -35 c11 -150 64 -785 65 -785 1 -1 61 3 132
9 l130 11 0 50 0 49 -55 -2 c-30 -2 -67 -5 -81 -8 l-26 -5 -7 93 c-4 51 -9
114 -13 141 l-6 47 59 0 c77 0 86 7 82 61 l-3 44 -72 -3 -73 -4 -1 34 c0 18
-4 71 -8 118 -6 60 -5 87 3 92 6 4 36 8 66 8 30 0 61 4 68 9 15 9 13 93 -3 96
-5 1 -66 -3 -135 -9z"/>
<path d="M14307 6975 c-76 -7 -139 -14 -141 -16 -1 -2 -1 -26 2 -52 l4 -48 52
6 53 7 29 -362 29 -362 53 5 c30 3 55 7 56 9 1 2 -10 149 -25 328 -36 416 -36
390 -1 390 53 0 72 11 72 39 0 44 -11 71 -29 70 -9 -1 -78 -7 -154 -14z"/>
<path d="M14004 6942 c-8 -5 -8 -46 2 -152 22 -248 22 -248 -58 -42 l-71 182
-53 0 c-52 0 -54 -1 -54 -27 0 -38 60 -775 64 -788 2 -6 26 -8 55 -7 61 5 58
-27 31 287 -10 126 -18 231 -16 232 7 7 146 -351 146 -375 0 -15 3 -50 6 -79
l7 -52 51 6 c28 3 52 7 54 8 3 3 -56 738 -64 783 -5 30 -7 32 -47 32 -23 0
-47 -4 -53 -8z"/>
<path d="M13545 6907 c-66 -5 -122 -11 -124 -13 -6 -5 61 -808 68 -815 3 -3
65 -1 136 5 l130 11 -4 50 c-1 28 -4 50 -5 51 0 0 -35 -2 -76 -6 -42 -3 -78
-2 -81 3 -4 5 -10 62 -14 126 -3 64 -7 121 -8 126 -1 6 28 13 65 16 38 3 70 7
72 10 2 2 2 25 -1 50 l-5 46 -69 -5 c-53 -4 -70 -1 -73 9 -3 8 -7 64 -8 124
l-3 110 72 6 c40 3 74 7 76 10 9 11 -6 99 -17 97 -6 0 -65 -5 -131 -11z"/>
<path d="M13100 6870 c-38 -9 -76 -47 -86 -85 -11 -42 44 -632 62 -670 23 -49
69 -68 147 -60 133 14 167 44 167 148 l0 57 -55 0 -55 0 0 -38 c0 -21 -5 -43
-12 -50 -15 -15 -84 -16 -93 -2 -10 16 -55 568 -48 585 7 19 45 29 77 21 26
-6 36 -31 36 -88 0 -41 10 -45 79 -32 27 6 31 11 31 40 0 69 -21 133 -52 159
-25 22 -39 25 -96 24 -37 -1 -83 -5 -102 -9z"/>
<path d="M12625 6834 c-7 -3 -7 -52 2 -157 8 -83 12 -165 11 -182 -3 -26 -7
-21 -30 40 -14 39 -45 118 -68 178 l-41 107 -56 0 -55 0 7 -92 c4 -51 19 -237
34 -413 l26 -319 50 3 c28 1 52 5 54 7 4 4 -26 417 -35 484 -8 53 7 24 80
-157 53 -131 65 -172 71 -240 l7 -82 52 6 c28 3 52 7 54 8 2 2 -11 186 -30
409 l-33 406 -45 -1 c-25 0 -50 -3 -55 -5z"/>
<path d="M14750 6800 c-15 -28 4 -60 35 -60 31 0 50 32 35 60 -6 12 -21 20
-35 20 -14 0 -29 -8 -35 -20z"/>
<path d="M12170 6797 c-69 -5 -126 -11 -128 -12 -4 -3 57 -769 63 -800 4 -20
8 -20 134 -10 71 6 132 12 134 15 3 3 3 26 0 51 l-5 47 -39 -4 c-22 -2 -57 -6
-78 -8 -37 -4 -39 -2 -45 28 -2 17 -8 79 -12 137 l-6 107 66 4 c36 2 68 7 71
10 4 3 3 26 0 51 l-7 44 -68 -5 c-82 -6 -78 -12 -82 143 l-3 100 72 5 c39 3
74 8 77 11 8 7 -5 100 -13 97 -3 0 -62 -6 -131 -11z"/>
<path d="M11813 6767 c-79 -6 -123 -14 -123 -21 3 -61 68 -807 71 -809 7 -6
257 18 264 25 4 3 3 26 0 51 -7 44 -8 45 -39 42 -17 -2 -52 -6 -77 -9 l-47 -5
-5 47 c-3 26 -9 89 -13 140 l-7 92 59 0 c80 0 88 7 80 63 l-7 44 -69 -5 -68
-5 -6 44 c-4 24 -7 80 -9 124 l-2 80 72 5 c39 3 75 8 78 12 12 11 -5 98 -18
96 -7 0 -67 -6 -134 -11z"/>
<path d="M11460 6734 c-74 -7 -138 -13 -142 -13 -9 -1 -10 -47 -2 -79 6 -20
10 -22 55 -16 l48 6 5 -33 c5 -30 56 -659 56 -683 0 -9 96 -3 106 7 5 5 -39
588 -51 678 l-5 36 51 6 c29 4 53 8 54 9 1 2 0 24 -3 51 -3 36 -8 47 -21 46
-9 -1 -77 -7 -151 -15z"/>
<path d="M13632 6718 c-34 -34 6 -90 48 -68 35 19 20 80 -20 80 -9 0 -21 -5
-28 -12z"/>
<path d="M12260 6600 c-24 -24 -25 -34 -4 -54 22 -22 51 -20 64 5 14 25 8 44
-19 59 -17 8 -24 7 -41 -10z"/>
<path d="M11910 6576 c-28 -35 11 -93 48 -70 23 15 27 48 7 68 -20 20 -39 20
-55 2z"/>
<path d="M13223 6554 c-24 -24 -25 -30 -21 -100 7 -99 26 -128 91 -132 39 -3
51 1 73 23 25 25 26 31 22 106 -4 65 -9 84 -28 104 -33 36 -101 35 -137 -1z"/>
<path d="M14780 6460 c-24 -24 -25 -38 -4 -68 17 -24 53 -29 72 -10 17 17 15
64 -4 82 -21 21 -40 20 -64 -4z"/>
<path d="M13660 6370 c-11 -11 -20 -29 -20 -40 0 -23 33 -60 53 -60 20 0 47
33 47 58 0 22 -32 62 -50 62 -5 0 -19 -9 -30 -20z"/>
<path d="M12280 6255 c-16 -19 -16 -60 0 -80 19 -23 57 -18 76 9 13 22 14 29
2 53 -15 33 -58 43 -78 18z"/>
<path d="M11932 6228 c-17 -17 -15 -64 4 -83 23 -22 56 -15 73 16 13 24 13 29
-2 53 -19 28 -54 35 -75 14z"/>
</g>
</svg>
